<mxfile host="app.diagrams.net" modified="2023-05-20T12:06:44.201Z" agent="Mozilla/5.0 (Windows NT 10.0; Win64; x64) AppleWebKit/537.36 (KHTML, like Gecko) Chrome/113.0.0.0 Safari/537.36" etag="HFRcngwIQqzq2nshLVEo" version="21.3.0" type="device">
  <diagram name="Page-1" id="ZRpeHJHbZz1wf80iPmkk">
    <mxGraphModel dx="5170" dy="3650" grid="1" gridSize="10" guides="1" tooltips="1" connect="1" arrows="1" fold="1" page="1" pageScale="1" pageWidth="850" pageHeight="1100" math="0" shadow="0">
      <root>
        <mxCell id="0" />
        <mxCell id="1" parent="0" />
        <mxCell id="Ymar8S3VfAMfCvI-emSc-20" style="edgeStyle=orthogonalEdgeStyle;rounded=0;orthogonalLoop=1;jettySize=auto;html=1;exitX=1;exitY=0.5;exitDx=0;exitDy=0;entryX=0;entryY=0.5;entryDx=0;entryDy=0;dashed=1;endArrow=open;endFill=0;" edge="1" parent="1" source="Ymar8S3VfAMfCvI-emSc-21" target="Ymar8S3VfAMfCvI-emSc-32">
          <mxGeometry relative="1" as="geometry" />
        </mxCell>
        <mxCell id="Ymar8S3VfAMfCvI-emSc-21" value="EnemyFactory" style="html=1;whiteSpace=wrap;" vertex="1" parent="1">
          <mxGeometry x="920" y="480" width="110" height="50" as="geometry" />
        </mxCell>
        <mxCell id="Ymar8S3VfAMfCvI-emSc-22" style="edgeStyle=orthogonalEdgeStyle;rounded=0;orthogonalLoop=1;jettySize=auto;html=1;exitX=0.5;exitY=0;exitDx=0;exitDy=0;endArrow=block;endFill=0;" edge="1" parent="1" source="Ymar8S3VfAMfCvI-emSc-32" target="Ymar8S3VfAMfCvI-emSc-34">
          <mxGeometry relative="1" as="geometry" />
        </mxCell>
        <mxCell id="Ymar8S3VfAMfCvI-emSc-23" style="edgeStyle=orthogonalEdgeStyle;rounded=0;orthogonalLoop=1;jettySize=auto;html=1;exitX=0.75;exitY=0;exitDx=0;exitDy=0;entryX=0;entryY=0.5;entryDx=0;entryDy=0;endArrow=open;endFill=0;" edge="1" parent="1" source="Ymar8S3VfAMfCvI-emSc-32" target="Ymar8S3VfAMfCvI-emSc-50">
          <mxGeometry relative="1" as="geometry" />
        </mxCell>
        <mxCell id="Ymar8S3VfAMfCvI-emSc-24" value="Has" style="edgeLabel;html=1;align=center;verticalAlign=middle;resizable=0;points=[];" vertex="1" connectable="0" parent="Ymar8S3VfAMfCvI-emSc-23">
          <mxGeometry x="-0.1811" relative="1" as="geometry">
            <mxPoint y="-3" as="offset" />
          </mxGeometry>
        </mxCell>
        <mxCell id="Ymar8S3VfAMfCvI-emSc-25" value="1..3" style="edgeLabel;html=1;align=center;verticalAlign=middle;resizable=0;points=[];" vertex="1" connectable="0" parent="Ymar8S3VfAMfCvI-emSc-23">
          <mxGeometry x="0.9348" relative="1" as="geometry">
            <mxPoint y="-15" as="offset" />
          </mxGeometry>
        </mxCell>
        <mxCell id="Ymar8S3VfAMfCvI-emSc-26" style="edgeStyle=orthogonalEdgeStyle;rounded=0;orthogonalLoop=1;jettySize=auto;html=1;exitX=0.25;exitY=0;exitDx=0;exitDy=0;entryX=1;entryY=0.5;entryDx=0;entryDy=0;endArrow=open;endFill=0;" edge="1" parent="1" source="Ymar8S3VfAMfCvI-emSc-32" target="Ymar8S3VfAMfCvI-emSc-52">
          <mxGeometry relative="1" as="geometry" />
        </mxCell>
        <mxCell id="Ymar8S3VfAMfCvI-emSc-27" value="Has" style="edgeLabel;html=1;align=center;verticalAlign=middle;resizable=0;points=[];" vertex="1" connectable="0" parent="Ymar8S3VfAMfCvI-emSc-26">
          <mxGeometry x="0.4736" relative="1" as="geometry">
            <mxPoint as="offset" />
          </mxGeometry>
        </mxCell>
        <mxCell id="Ymar8S3VfAMfCvI-emSc-28" value="1" style="edgeLabel;html=1;align=center;verticalAlign=middle;resizable=0;points=[];" vertex="1" connectable="0" parent="Ymar8S3VfAMfCvI-emSc-26">
          <mxGeometry x="0.9208" y="-1" relative="1" as="geometry">
            <mxPoint y="-14" as="offset" />
          </mxGeometry>
        </mxCell>
        <mxCell id="Ymar8S3VfAMfCvI-emSc-29" style="edgeStyle=orthogonalEdgeStyle;rounded=0;orthogonalLoop=1;jettySize=auto;html=1;exitX=0;exitY=0;exitDx=0;exitDy=0;entryX=0.5;entryY=1;entryDx=0;entryDy=0;endArrow=open;endFill=0;" edge="1" parent="1" source="Ymar8S3VfAMfCvI-emSc-32" target="Ymar8S3VfAMfCvI-emSc-53">
          <mxGeometry relative="1" as="geometry" />
        </mxCell>
        <mxCell id="Ymar8S3VfAMfCvI-emSc-30" value="Has" style="edgeLabel;html=1;align=center;verticalAlign=middle;resizable=0;points=[];" vertex="1" connectable="0" parent="Ymar8S3VfAMfCvI-emSc-29">
          <mxGeometry x="-0.0211" y="1" relative="1" as="geometry">
            <mxPoint x="-8" y="-2" as="offset" />
          </mxGeometry>
        </mxCell>
        <mxCell id="Ymar8S3VfAMfCvI-emSc-31" value="1..4" style="edgeLabel;html=1;align=center;verticalAlign=middle;resizable=0;points=[];" vertex="1" connectable="0" parent="Ymar8S3VfAMfCvI-emSc-29">
          <mxGeometry x="0.9569" y="-1" relative="1" as="geometry">
            <mxPoint x="16" as="offset" />
          </mxGeometry>
        </mxCell>
        <mxCell id="Ymar8S3VfAMfCvI-emSc-32" value="&lt;i&gt;Enemy&lt;/i&gt;" style="html=1;whiteSpace=wrap;" vertex="1" parent="1">
          <mxGeometry x="1120" y="480" width="110" height="50" as="geometry" />
        </mxCell>
        <mxCell id="Ymar8S3VfAMfCvI-emSc-33" value="actors" style="shape=umlFrame;whiteSpace=wrap;html=1;pointerEvents=0;fillColor=#dae8fc;strokeColor=#6c8ebf;strokeWidth=5;" vertex="1" parent="1">
          <mxGeometry x="1025" y="-272.5" width="300" height="185" as="geometry" />
        </mxCell>
        <mxCell id="Ymar8S3VfAMfCvI-emSc-34" value="&lt;i&gt;Actor&lt;/i&gt;" style="html=1;whiteSpace=wrap;" vertex="1" parent="1">
          <mxGeometry x="1120" y="-205" width="110" height="50" as="geometry" />
        </mxCell>
        <mxCell id="Ymar8S3VfAMfCvI-emSc-43" value="behaviours" style="shape=umlFrame;whiteSpace=wrap;html=1;pointerEvents=0;width=70;height=30;fillColor=#dae8fc;strokeColor=#6c8ebf;strokeWidth=5;" vertex="1" parent="1">
          <mxGeometry x="1258" y="60" width="742" height="340" as="geometry" />
        </mxCell>
        <mxCell id="Ymar8S3VfAMfCvI-emSc-96" style="edgeStyle=orthogonalEdgeStyle;rounded=0;orthogonalLoop=1;jettySize=auto;html=1;exitX=0.5;exitY=0;exitDx=0;exitDy=0;dashed=1;endArrow=block;endFill=0;" edge="1" parent="1" source="Ymar8S3VfAMfCvI-emSc-45" target="Ymar8S3VfAMfCvI-emSc-50">
          <mxGeometry relative="1" as="geometry" />
        </mxCell>
        <mxCell id="Ymar8S3VfAMfCvI-emSc-45" value="AttackBehaviour" style="html=1;whiteSpace=wrap;" vertex="1" parent="1">
          <mxGeometry x="1360" y="299" width="110" height="50" as="geometry" />
        </mxCell>
        <mxCell id="Ymar8S3VfAMfCvI-emSc-97" style="edgeStyle=orthogonalEdgeStyle;rounded=0;orthogonalLoop=1;jettySize=auto;html=1;exitX=0.5;exitY=0;exitDx=0;exitDy=0;dashed=1;endArrow=block;endFill=0;" edge="1" parent="1" source="Ymar8S3VfAMfCvI-emSc-47" target="Ymar8S3VfAMfCvI-emSc-50">
          <mxGeometry relative="1" as="geometry" />
        </mxCell>
        <mxCell id="Ymar8S3VfAMfCvI-emSc-47" value="FollowBehaviour" style="html=1;whiteSpace=wrap;" vertex="1" parent="1">
          <mxGeometry x="1520" y="299" width="110" height="50" as="geometry" />
        </mxCell>
        <mxCell id="Ymar8S3VfAMfCvI-emSc-98" style="edgeStyle=orthogonalEdgeStyle;rounded=0;orthogonalLoop=1;jettySize=auto;html=1;exitX=0.5;exitY=0;exitDx=0;exitDy=0;dashed=1;endArrow=block;endFill=0;" edge="1" parent="1" source="Ymar8S3VfAMfCvI-emSc-49" target="Ymar8S3VfAMfCvI-emSc-50">
          <mxGeometry relative="1" as="geometry" />
        </mxCell>
        <mxCell id="Ymar8S3VfAMfCvI-emSc-49" value="WanderBehaviour" style="html=1;whiteSpace=wrap;" vertex="1" parent="1">
          <mxGeometry x="1680" y="299" width="110" height="50" as="geometry" />
        </mxCell>
        <mxCell id="Ymar8S3VfAMfCvI-emSc-144" style="edgeStyle=orthogonalEdgeStyle;rounded=0;orthogonalLoop=1;jettySize=auto;html=1;exitX=0.5;exitY=0;exitDx=0;exitDy=0;entryX=0.5;entryY=0;entryDx=0;entryDy=0;dashed=1;endArrow=open;endFill=0;" edge="1" parent="1" source="Ymar8S3VfAMfCvI-emSc-50" target="Ymar8S3VfAMfCvI-emSc-141">
          <mxGeometry relative="1" as="geometry">
            <Array as="points">
              <mxPoint x="1655" y="-400" />
              <mxPoint x="3735" y="-400" />
            </Array>
          </mxGeometry>
        </mxCell>
        <mxCell id="Ymar8S3VfAMfCvI-emSc-50" value="&lt;i&gt;&amp;lt;&amp;lt;Interface&amp;gt;&amp;gt;&lt;br&gt;Behaviour&lt;br&gt;&lt;/i&gt;" style="html=1;whiteSpace=wrap;" vertex="1" parent="1">
          <mxGeometry x="1600" y="130" width="110" height="50" as="geometry" />
        </mxCell>
        <mxCell id="Ymar8S3VfAMfCvI-emSc-51" value="enums" style="shape=umlFrame;whiteSpace=wrap;html=1;pointerEvents=0;fillColor=#dae8fc;strokeColor=#6c8ebf;strokeWidth=5;" vertex="1" parent="1">
          <mxGeometry x="690" y="120" width="378" height="160" as="geometry" />
        </mxCell>
        <mxCell id="Ymar8S3VfAMfCvI-emSc-52" value="&amp;lt;&amp;lt;enumeration&amp;gt;&amp;gt;&lt;br&gt;Species" style="html=1;whiteSpace=wrap;" vertex="1" parent="1">
          <mxGeometry x="898" y="170.5" width="110" height="50" as="geometry" />
        </mxCell>
        <mxCell id="Ymar8S3VfAMfCvI-emSc-53" value="&amp;lt;&amp;lt;enumeration&amp;gt;&amp;gt;&lt;br&gt;Status" style="html=1;whiteSpace=wrap;" vertex="1" parent="1">
          <mxGeometry x="748" y="170.5" width="110" height="50" as="geometry" />
        </mxCell>
        <mxCell id="Ymar8S3VfAMfCvI-emSc-54" value="weapons" style="shape=umlFrame;whiteSpace=wrap;html=1;pointerEvents=0;fillColor=#dae8fc;strokeColor=#6c8ebf;strokeWidth=5;" vertex="1" parent="1">
          <mxGeometry x="2630" y="-340" width="489" height="250" as="geometry" />
        </mxCell>
        <mxCell id="Ymar8S3VfAMfCvI-emSc-55" style="edgeStyle=orthogonalEdgeStyle;rounded=0;orthogonalLoop=1;jettySize=auto;html=1;exitX=0.5;exitY=0;exitDx=0;exitDy=0;entryX=0.5;entryY=1;entryDx=0;entryDy=0;endArrow=block;endFill=0;dashed=1;" edge="1" parent="1" source="Ymar8S3VfAMfCvI-emSc-56" target="Ymar8S3VfAMfCvI-emSc-57">
          <mxGeometry relative="1" as="geometry" />
        </mxCell>
        <mxCell id="Ymar8S3VfAMfCvI-emSc-56" value="&lt;i&gt;WeaponItem&lt;/i&gt;" style="html=1;whiteSpace=wrap;" vertex="1" parent="1">
          <mxGeometry x="2819.5" y="-175" width="110" height="50" as="geometry" />
        </mxCell>
        <mxCell id="Ymar8S3VfAMfCvI-emSc-57" value="&lt;i&gt;&amp;lt;&amp;lt;Interface&amp;gt;&amp;gt;&lt;br&gt;Weapon&lt;br&gt;&lt;/i&gt;" style="html=1;whiteSpace=wrap;" vertex="1" parent="1">
          <mxGeometry x="2814.5" y="-310" width="120" height="50" as="geometry" />
        </mxCell>
        <mxCell id="Ymar8S3VfAMfCvI-emSc-58" style="edgeStyle=orthogonalEdgeStyle;rounded=0;orthogonalLoop=1;jettySize=auto;html=1;entryX=0.5;entryY=1;entryDx=0;entryDy=0;endArrow=block;endFill=0;" edge="1" parent="1" source="Ymar8S3VfAMfCvI-emSc-60" target="Ymar8S3VfAMfCvI-emSc-56">
          <mxGeometry relative="1" as="geometry">
            <mxPoint x="2625" y="505" as="sourcePoint" />
          </mxGeometry>
        </mxCell>
        <mxCell id="Ymar8S3VfAMfCvI-emSc-60" value="&lt;i&gt;TradableWeapon&lt;/i&gt;" style="html=1;whiteSpace=wrap;" vertex="1" parent="1">
          <mxGeometry x="2819.5" y="370" width="110" height="50" as="geometry" />
        </mxCell>
        <mxCell id="Ymar8S3VfAMfCvI-emSc-64" value="enemies" style="shape=umlFrame;whiteSpace=wrap;html=1;pointerEvents=0;fillColor=#dae8fc;strokeColor=#6c8ebf;strokeWidth=5;" vertex="1" parent="1">
          <mxGeometry x="880" y="430" width="720" height="320" as="geometry" />
        </mxCell>
        <mxCell id="Ymar8S3VfAMfCvI-emSc-66" value="weapons" style="shape=umlFrame;whiteSpace=wrap;html=1;pointerEvents=0;width=90;height=37;strokeWidth=5;fillColor=#dae8fc;strokeColor=#6c8ebf;" vertex="1" parent="1">
          <mxGeometry x="2719.5" y="320" width="310" height="495" as="geometry" />
        </mxCell>
        <mxCell id="Ymar8S3VfAMfCvI-emSc-67" value="&lt;b&gt;&lt;font style=&quot;font-size: 30px;&quot;&gt;Engine&lt;/font&gt;&lt;/b&gt;" style="shape=umlFrame;whiteSpace=wrap;html=1;pointerEvents=0;strokeWidth=5;fillColor=#f8cecc;strokeColor=#b85450;width=130;height=60;" vertex="1" parent="1">
          <mxGeometry x="550" y="-448.75" width="3370" height="448.75" as="geometry" />
        </mxCell>
        <mxCell id="Ymar8S3VfAMfCvI-emSc-68" value="&lt;b&gt;&lt;font style=&quot;font-size: 30px;&quot;&gt;game&lt;/font&gt;&lt;/b&gt;" style="shape=umlFrame;whiteSpace=wrap;html=1;pointerEvents=0;strokeWidth=5;fillColor=#f8cecc;strokeColor=#b85450;width=160;height=60;" vertex="1" parent="1">
          <mxGeometry x="560" y="30" width="3610" height="1010" as="geometry" />
        </mxCell>
        <mxCell id="Ymar8S3VfAMfCvI-emSc-81" style="edgeStyle=orthogonalEdgeStyle;rounded=0;orthogonalLoop=1;jettySize=auto;html=1;exitX=0.5;exitY=0;exitDx=0;exitDy=0;entryX=0.5;entryY=1;entryDx=0;entryDy=0;endArrow=block;endFill=0;" edge="1" parent="1" source="Ymar8S3VfAMfCvI-emSc-69" target="Ymar8S3VfAMfCvI-emSc-32">
          <mxGeometry relative="1" as="geometry" />
        </mxCell>
        <mxCell id="Ymar8S3VfAMfCvI-emSc-83" style="edgeStyle=orthogonalEdgeStyle;rounded=0;orthogonalLoop=1;jettySize=auto;html=1;exitX=1;exitY=0.5;exitDx=0;exitDy=0;entryX=0.5;entryY=1;entryDx=0;entryDy=0;dashed=1;endArrow=block;endFill=0;" edge="1" parent="1" source="Ymar8S3VfAMfCvI-emSc-69" target="Ymar8S3VfAMfCvI-emSc-70">
          <mxGeometry relative="1" as="geometry" />
        </mxCell>
        <mxCell id="Ymar8S3VfAMfCvI-emSc-112" style="edgeStyle=orthogonalEdgeStyle;rounded=0;orthogonalLoop=1;jettySize=auto;html=1;exitX=0.75;exitY=1;exitDx=0;exitDy=0;entryX=0.5;entryY=1;entryDx=0;entryDy=0;endArrow=open;endFill=0;" edge="1" parent="1" source="Ymar8S3VfAMfCvI-emSc-69" target="Ymar8S3VfAMfCvI-emSc-73">
          <mxGeometry relative="1" as="geometry">
            <Array as="points">
              <mxPoint x="1203" y="800" />
              <mxPoint x="2370" y="800" />
            </Array>
          </mxGeometry>
        </mxCell>
        <mxCell id="Ymar8S3VfAMfCvI-emSc-115" value="Has" style="edgeLabel;html=1;align=center;verticalAlign=middle;resizable=0;points=[];" vertex="1" connectable="0" parent="Ymar8S3VfAMfCvI-emSc-112">
          <mxGeometry x="-0.129" y="-2" relative="1" as="geometry">
            <mxPoint x="-1" as="offset" />
          </mxGeometry>
        </mxCell>
        <mxCell id="Ymar8S3VfAMfCvI-emSc-118" value="1" style="edgeLabel;html=1;align=center;verticalAlign=middle;resizable=0;points=[];" vertex="1" connectable="0" parent="Ymar8S3VfAMfCvI-emSc-112">
          <mxGeometry x="0.9796" y="-1" relative="1" as="geometry">
            <mxPoint x="9" as="offset" />
          </mxGeometry>
        </mxCell>
        <mxCell id="Ymar8S3VfAMfCvI-emSc-121" value="1" style="edgeLabel;html=1;align=center;verticalAlign=middle;resizable=0;points=[];" vertex="1" connectable="0" parent="Ymar8S3VfAMfCvI-emSc-112">
          <mxGeometry x="-0.9913" relative="1" as="geometry">
            <mxPoint x="5" y="2" as="offset" />
          </mxGeometry>
        </mxCell>
        <mxCell id="Ymar8S3VfAMfCvI-emSc-113" style="edgeStyle=orthogonalEdgeStyle;rounded=0;orthogonalLoop=1;jettySize=auto;html=1;exitX=0.5;exitY=1;exitDx=0;exitDy=0;entryX=0.5;entryY=1;entryDx=0;entryDy=0;endArrow=open;endFill=0;" edge="1" parent="1" source="Ymar8S3VfAMfCvI-emSc-69" target="Ymar8S3VfAMfCvI-emSc-79">
          <mxGeometry relative="1" as="geometry">
            <Array as="points">
              <mxPoint x="1175" y="840" />
              <mxPoint x="2804" y="840" />
            </Array>
          </mxGeometry>
        </mxCell>
        <mxCell id="Ymar8S3VfAMfCvI-emSc-116" value="Has" style="edgeLabel;html=1;align=center;verticalAlign=middle;resizable=0;points=[];" vertex="1" connectable="0" parent="Ymar8S3VfAMfCvI-emSc-113">
          <mxGeometry x="-0.2976" y="3" relative="1" as="geometry">
            <mxPoint x="42" as="offset" />
          </mxGeometry>
        </mxCell>
        <mxCell id="Ymar8S3VfAMfCvI-emSc-119" value="0..1" style="edgeLabel;html=1;align=center;verticalAlign=middle;resizable=0;points=[];" vertex="1" connectable="0" parent="Ymar8S3VfAMfCvI-emSc-113">
          <mxGeometry x="0.9817" y="-2" relative="1" as="geometry">
            <mxPoint x="14" as="offset" />
          </mxGeometry>
        </mxCell>
        <mxCell id="Ymar8S3VfAMfCvI-emSc-122" value="1" style="edgeLabel;html=1;align=center;verticalAlign=middle;resizable=0;points=[];" vertex="1" connectable="0" parent="Ymar8S3VfAMfCvI-emSc-113">
          <mxGeometry x="-0.9937" y="1" relative="1" as="geometry">
            <mxPoint x="4" y="2" as="offset" />
          </mxGeometry>
        </mxCell>
        <mxCell id="Ymar8S3VfAMfCvI-emSc-114" style="edgeStyle=orthogonalEdgeStyle;rounded=0;orthogonalLoop=1;jettySize=auto;html=1;exitX=0.25;exitY=1;exitDx=0;exitDy=0;entryX=0.5;entryY=1;entryDx=0;entryDy=0;endArrow=open;endFill=0;" edge="1" parent="1" source="Ymar8S3VfAMfCvI-emSc-69" target="Ymar8S3VfAMfCvI-emSc-80">
          <mxGeometry relative="1" as="geometry">
            <Array as="points">
              <mxPoint x="1148" y="880" />
              <mxPoint x="2944" y="880" />
            </Array>
          </mxGeometry>
        </mxCell>
        <mxCell id="Ymar8S3VfAMfCvI-emSc-117" value="Has" style="edgeLabel;html=1;align=center;verticalAlign=middle;resizable=0;points=[];" vertex="1" connectable="0" parent="Ymar8S3VfAMfCvI-emSc-114">
          <mxGeometry x="-0.3148" y="-1" relative="1" as="geometry">
            <mxPoint x="41" as="offset" />
          </mxGeometry>
        </mxCell>
        <mxCell id="Ymar8S3VfAMfCvI-emSc-120" value="0..1" style="edgeLabel;html=1;align=center;verticalAlign=middle;resizable=0;points=[];" vertex="1" connectable="0" parent="Ymar8S3VfAMfCvI-emSc-114">
          <mxGeometry x="0.9805" y="-2" relative="1" as="geometry">
            <mxPoint x="14" y="-2" as="offset" />
          </mxGeometry>
        </mxCell>
        <mxCell id="Ymar8S3VfAMfCvI-emSc-123" value="1" style="edgeLabel;html=1;align=center;verticalAlign=middle;resizable=0;points=[];" vertex="1" connectable="0" parent="Ymar8S3VfAMfCvI-emSc-114">
          <mxGeometry x="-0.9903" y="-1" relative="1" as="geometry">
            <mxPoint x="6" y="-1" as="offset" />
          </mxGeometry>
        </mxCell>
        <mxCell id="Ymar8S3VfAMfCvI-emSc-69" value="&lt;i&gt;GodrickTheGrafted&lt;/i&gt;" style="html=1;whiteSpace=wrap;" vertex="1" parent="1">
          <mxGeometry x="1120" y="610" width="110" height="50" as="geometry" />
        </mxCell>
        <mxCell id="Ymar8S3VfAMfCvI-emSc-70" value="&lt;i&gt;&amp;lt;&amp;lt;Interface&amp;gt;&amp;gt;&lt;br&gt;AoECapable&lt;br&gt;&lt;/i&gt;" style="html=1;whiteSpace=wrap;" vertex="1" parent="1">
          <mxGeometry x="1320" y="480" width="110" height="50" as="geometry" />
        </mxCell>
        <mxCell id="Ymar8S3VfAMfCvI-emSc-99" style="edgeStyle=orthogonalEdgeStyle;rounded=0;orthogonalLoop=1;jettySize=auto;html=1;exitX=0.5;exitY=0;exitDx=0;exitDy=0;dashed=1;endArrow=block;endFill=0;" edge="1" parent="1" source="Ymar8S3VfAMfCvI-emSc-71" target="Ymar8S3VfAMfCvI-emSc-50">
          <mxGeometry relative="1" as="geometry" />
        </mxCell>
        <mxCell id="Ymar8S3VfAMfCvI-emSc-100" style="edgeStyle=orthogonalEdgeStyle;rounded=0;orthogonalLoop=1;jettySize=auto;html=1;exitX=0.5;exitY=1;exitDx=0;exitDy=0;entryX=1;entryY=0.5;entryDx=0;entryDy=0;endArrow=open;endFill=0;" edge="1" parent="1" source="Ymar8S3VfAMfCvI-emSc-71" target="Ymar8S3VfAMfCvI-emSc-70">
          <mxGeometry relative="1" as="geometry" />
        </mxCell>
        <mxCell id="Ymar8S3VfAMfCvI-emSc-101" value="Has" style="edgeLabel;html=1;align=center;verticalAlign=middle;resizable=0;points=[];" vertex="1" connectable="0" parent="Ymar8S3VfAMfCvI-emSc-100">
          <mxGeometry x="0.119" y="-3" relative="1" as="geometry">
            <mxPoint x="-4" as="offset" />
          </mxGeometry>
        </mxCell>
        <mxCell id="Ymar8S3VfAMfCvI-emSc-102" value="1" style="edgeLabel;html=1;align=center;verticalAlign=middle;resizable=0;points=[];" vertex="1" connectable="0" parent="Ymar8S3VfAMfCvI-emSc-100">
          <mxGeometry x="0.9208" y="-3" relative="1" as="geometry">
            <mxPoint x="-14" y="-12" as="offset" />
          </mxGeometry>
        </mxCell>
        <mxCell id="Ymar8S3VfAMfCvI-emSc-103" value="1" style="edgeLabel;html=1;align=center;verticalAlign=middle;resizable=0;points=[];" vertex="1" connectable="0" parent="Ymar8S3VfAMfCvI-emSc-100">
          <mxGeometry x="-0.9321" y="1" relative="1" as="geometry">
            <mxPoint x="-16" y="-10" as="offset" />
          </mxGeometry>
        </mxCell>
        <mxCell id="Ymar8S3VfAMfCvI-emSc-71" value="AoEBehaviour" style="html=1;whiteSpace=wrap;" vertex="1" parent="1">
          <mxGeometry x="1840" y="299" width="110" height="50" as="geometry" />
        </mxCell>
        <mxCell id="Ymar8S3VfAMfCvI-emSc-106" style="edgeStyle=orthogonalEdgeStyle;rounded=0;orthogonalLoop=1;jettySize=auto;html=1;exitX=0.5;exitY=0;exitDx=0;exitDy=0;entryX=0.5;entryY=1;entryDx=0;entryDy=0;endArrow=block;endFill=0;" edge="1" parent="1" source="Ymar8S3VfAMfCvI-emSc-73" target="Ymar8S3VfAMfCvI-emSc-78">
          <mxGeometry relative="1" as="geometry" />
        </mxCell>
        <mxCell id="Ymar8S3VfAMfCvI-emSc-109" style="edgeStyle=orthogonalEdgeStyle;rounded=0;orthogonalLoop=1;jettySize=auto;html=1;exitX=1;exitY=0.5;exitDx=0;exitDy=0;entryX=0.25;entryY=1;entryDx=0;entryDy=0;dashed=1;endArrow=block;endFill=0;" edge="1" parent="1" source="Ymar8S3VfAMfCvI-emSc-73" target="Ymar8S3VfAMfCvI-emSc-108">
          <mxGeometry relative="1" as="geometry" />
        </mxCell>
        <mxCell id="Ymar8S3VfAMfCvI-emSc-73" value="RemembranceOfTheGrafted" style="html=1;whiteSpace=wrap;" vertex="1" parent="1">
          <mxGeometry x="2285" y="592" width="170" height="50" as="geometry" />
        </mxCell>
        <mxCell id="Ymar8S3VfAMfCvI-emSc-74" value="items" style="shape=umlFrame;whiteSpace=wrap;html=1;pointerEvents=0;width=70;height=30;fillColor=#dae8fc;strokeColor=#6c8ebf;strokeWidth=5;" vertex="1" parent="1">
          <mxGeometry x="1970" y="435" width="510" height="260" as="geometry" />
        </mxCell>
        <mxCell id="Ymar8S3VfAMfCvI-emSc-75" value="items" style="shape=umlFrame;whiteSpace=wrap;html=1;pointerEvents=0;fillColor=#dae8fc;strokeColor=#6c8ebf;strokeWidth=5;" vertex="1" parent="1">
          <mxGeometry x="2100" y="-272.5" width="300" height="185" as="geometry" />
        </mxCell>
        <mxCell id="Ymar8S3VfAMfCvI-emSc-77" value="&lt;i&gt;Item&lt;/i&gt;" style="html=1;whiteSpace=wrap;" vertex="1" parent="1">
          <mxGeometry x="2195" y="-205" width="110" height="50" as="geometry" />
        </mxCell>
        <mxCell id="Ymar8S3VfAMfCvI-emSc-105" style="edgeStyle=orthogonalEdgeStyle;rounded=0;orthogonalLoop=1;jettySize=auto;html=1;exitX=0.5;exitY=0;exitDx=0;exitDy=0;entryX=0.5;entryY=1;entryDx=0;entryDy=0;endArrow=block;endFill=0;" edge="1" parent="1" source="Ymar8S3VfAMfCvI-emSc-78" target="Ymar8S3VfAMfCvI-emSc-77">
          <mxGeometry relative="1" as="geometry" />
        </mxCell>
        <mxCell id="Ymar8S3VfAMfCvI-emSc-78" value="&lt;i&gt;TradableItem&lt;/i&gt;" style="html=1;whiteSpace=wrap;" vertex="1" parent="1">
          <mxGeometry x="2315" y="500" width="110" height="50" as="geometry" />
        </mxCell>
        <mxCell id="Ymar8S3VfAMfCvI-emSc-110" style="edgeStyle=orthogonalEdgeStyle;rounded=0;orthogonalLoop=1;jettySize=auto;html=1;exitX=0.5;exitY=0;exitDx=0;exitDy=0;endArrow=block;endFill=0;" edge="1" parent="1" source="Ymar8S3VfAMfCvI-emSc-152" target="Ymar8S3VfAMfCvI-emSc-60">
          <mxGeometry relative="1" as="geometry">
            <Array as="points">
              <mxPoint x="2805" y="620" />
              <mxPoint x="2805" y="550" />
              <mxPoint x="2875" y="550" />
            </Array>
          </mxGeometry>
        </mxCell>
        <mxCell id="Ymar8S3VfAMfCvI-emSc-153" style="edgeStyle=orthogonalEdgeStyle;rounded=0;orthogonalLoop=1;jettySize=auto;html=1;exitX=0.5;exitY=0;exitDx=0;exitDy=0;entryX=0.5;entryY=1;entryDx=0;entryDy=0;endArrow=block;endFill=0;" edge="1" parent="1" source="Ymar8S3VfAMfCvI-emSc-79" target="Ymar8S3VfAMfCvI-emSc-152">
          <mxGeometry relative="1" as="geometry" />
        </mxCell>
        <mxCell id="Ymar8S3VfAMfCvI-emSc-157" style="edgeStyle=orthogonalEdgeStyle;rounded=0;orthogonalLoop=1;jettySize=auto;html=1;exitX=0.25;exitY=1;exitDx=0;exitDy=0;entryX=0.5;entryY=1;entryDx=0;entryDy=0;dashed=1;endArrow=block;endFill=0;" edge="1" parent="1" source="Ymar8S3VfAMfCvI-emSc-79" target="Ymar8S3VfAMfCvI-emSc-108">
          <mxGeometry relative="1" as="geometry">
            <Array as="points">
              <mxPoint x="2777" y="800" />
              <mxPoint x="2590" y="800" />
            </Array>
          </mxGeometry>
        </mxCell>
        <mxCell id="Ymar8S3VfAMfCvI-emSc-160" style="edgeStyle=orthogonalEdgeStyle;rounded=0;orthogonalLoop=1;jettySize=auto;html=1;exitX=0.75;exitY=1;exitDx=0;exitDy=0;entryX=0.75;entryY=1;entryDx=0;entryDy=0;dashed=1;endArrow=block;endFill=0;" edge="1" parent="1" source="Ymar8S3VfAMfCvI-emSc-79" target="Ymar8S3VfAMfCvI-emSc-147">
          <mxGeometry relative="1" as="geometry">
            <Array as="points">
              <mxPoint x="2832" y="960" />
              <mxPoint x="3166" y="960" />
            </Array>
          </mxGeometry>
        </mxCell>
        <mxCell id="Ymar8S3VfAMfCvI-emSc-79" value="AxeOfGodrick" style="html=1;whiteSpace=wrap;" vertex="1" parent="1">
          <mxGeometry x="2749.5" y="710" width="110" height="50" as="geometry" />
        </mxCell>
        <mxCell id="Ymar8S3VfAMfCvI-emSc-154" style="edgeStyle=orthogonalEdgeStyle;rounded=0;orthogonalLoop=1;jettySize=auto;html=1;exitX=0.5;exitY=0;exitDx=0;exitDy=0;entryX=0.5;entryY=1;entryDx=0;entryDy=0;endArrow=block;endFill=0;" edge="1" parent="1" source="Ymar8S3VfAMfCvI-emSc-80" target="Ymar8S3VfAMfCvI-emSc-60">
          <mxGeometry relative="1" as="geometry">
            <Array as="points">
              <mxPoint x="2945" y="550" />
              <mxPoint x="2875" y="550" />
            </Array>
          </mxGeometry>
        </mxCell>
        <mxCell id="Ymar8S3VfAMfCvI-emSc-155" style="edgeStyle=orthogonalEdgeStyle;rounded=0;orthogonalLoop=1;jettySize=auto;html=1;exitX=1;exitY=0.5;exitDx=0;exitDy=0;entryX=0.5;entryY=1;entryDx=0;entryDy=0;dashed=1;endArrow=open;endFill=0;" edge="1" parent="1" source="Ymar8S3VfAMfCvI-emSc-80" target="Ymar8S3VfAMfCvI-emSc-143">
          <mxGeometry relative="1" as="geometry" />
        </mxCell>
        <mxCell id="Ymar8S3VfAMfCvI-emSc-158" style="edgeStyle=orthogonalEdgeStyle;rounded=0;orthogonalLoop=1;jettySize=auto;html=1;exitX=0.25;exitY=1;exitDx=0;exitDy=0;entryX=0.75;entryY=1;entryDx=0;entryDy=0;dashed=1;endArrow=block;endFill=0;" edge="1" parent="1" source="Ymar8S3VfAMfCvI-emSc-80" target="Ymar8S3VfAMfCvI-emSc-108">
          <mxGeometry relative="1" as="geometry">
            <Array as="points">
              <mxPoint x="2917" y="920" />
              <mxPoint x="2618" y="920" />
            </Array>
          </mxGeometry>
        </mxCell>
        <mxCell id="Ymar8S3VfAMfCvI-emSc-159" style="edgeStyle=orthogonalEdgeStyle;rounded=0;orthogonalLoop=1;jettySize=auto;html=1;exitX=0.75;exitY=1;exitDx=0;exitDy=0;entryX=0.25;entryY=1;entryDx=0;entryDy=0;dashed=1;endArrow=block;endFill=0;" edge="1" parent="1" source="Ymar8S3VfAMfCvI-emSc-80" target="Ymar8S3VfAMfCvI-emSc-147">
          <mxGeometry relative="1" as="geometry">
            <Array as="points">
              <mxPoint x="2972" y="800" />
              <mxPoint x="3109" y="800" />
            </Array>
          </mxGeometry>
        </mxCell>
        <mxCell id="Ymar8S3VfAMfCvI-emSc-80" value="GraftedDragon" style="html=1;whiteSpace=wrap;" vertex="1" parent="1">
          <mxGeometry x="2889.5" y="710" width="110" height="50" as="geometry" />
        </mxCell>
        <mxCell id="Ymar8S3VfAMfCvI-emSc-107" value="interfaces" style="shape=umlFrame;whiteSpace=wrap;html=1;pointerEvents=0;width=70;height=30;fillColor=#dae8fc;strokeColor=#6c8ebf;strokeWidth=5;" vertex="1" parent="1">
          <mxGeometry x="2390" y="100" width="850" height="180" as="geometry" />
        </mxCell>
        <mxCell id="Ymar8S3VfAMfCvI-emSc-108" value="&lt;i&gt;&amp;lt;&amp;lt;Interface&amp;gt;&amp;gt;&lt;br&gt;Sellable&lt;/i&gt;" style="html=1;whiteSpace=wrap;" vertex="1" parent="1">
          <mxGeometry x="2535" y="190" width="110" height="50" as="geometry" />
        </mxCell>
        <mxCell id="Ymar8S3VfAMfCvI-emSc-132" value="actions" style="shape=umlFrame;whiteSpace=wrap;html=1;pointerEvents=0;width=71;height=25;fillColor=#dae8fc;strokeColor=#6c8ebf;strokeWidth=5;" vertex="1" parent="1">
          <mxGeometry x="3360" y="430" width="760" height="370" as="geometry" />
        </mxCell>
        <mxCell id="Ymar8S3VfAMfCvI-emSc-142" style="edgeStyle=orthogonalEdgeStyle;rounded=0;orthogonalLoop=1;jettySize=auto;html=1;exitX=0.5;exitY=0;exitDx=0;exitDy=0;entryX=0.5;entryY=1;entryDx=0;entryDy=0;endArrow=block;endFill=0;" edge="1" parent="1" source="Ymar8S3VfAMfCvI-emSc-133" target="Ymar8S3VfAMfCvI-emSc-141">
          <mxGeometry relative="1" as="geometry">
            <Array as="points">
              <mxPoint x="3580" y="220" />
              <mxPoint x="3735" y="220" />
            </Array>
          </mxGeometry>
        </mxCell>
        <mxCell id="Ymar8S3VfAMfCvI-emSc-133" value="&lt;i&gt;AreaAttack&lt;/i&gt;" style="html=1;whiteSpace=wrap;" vertex="1" parent="1">
          <mxGeometry x="3525" y="460" width="110" height="50" as="geometry" />
        </mxCell>
        <mxCell id="Ymar8S3VfAMfCvI-emSc-134" style="edgeStyle=orthogonalEdgeStyle;rounded=0;orthogonalLoop=1;jettySize=auto;html=1;exitX=0.5;exitY=0;exitDx=0;exitDy=0;entryX=0.5;entryY=1;entryDx=0;entryDy=0;endArrow=block;endFill=0;" edge="1" parent="1" source="Ymar8S3VfAMfCvI-emSc-135" target="Ymar8S3VfAMfCvI-emSc-133">
          <mxGeometry relative="1" as="geometry" />
        </mxCell>
        <mxCell id="Ymar8S3VfAMfCvI-emSc-135" value="SpinningAttack" style="html=1;whiteSpace=wrap;" vertex="1" parent="1">
          <mxGeometry x="3430" y="620" width="110" height="50" as="geometry" />
        </mxCell>
        <mxCell id="Ymar8S3VfAMfCvI-emSc-138" style="edgeStyle=orthogonalEdgeStyle;rounded=0;orthogonalLoop=1;jettySize=auto;html=1;exitX=0.5;exitY=0;exitDx=0;exitDy=0;entryX=0.5;entryY=1;entryDx=0;entryDy=0;endArrow=block;endFill=0;" edge="1" parent="1" target="Ymar8S3VfAMfCvI-emSc-133">
          <mxGeometry relative="1" as="geometry">
            <Array as="points">
              <mxPoint x="3675" y="565" />
              <mxPoint x="3580" y="565" />
            </Array>
            <mxPoint x="3675" y="620" as="sourcePoint" />
          </mxGeometry>
        </mxCell>
        <mxCell id="Ymar8S3VfAMfCvI-emSc-140" value="actions" style="shape=umlFrame;whiteSpace=wrap;html=1;pointerEvents=0;fillColor=#dae8fc;strokeColor=#6c8ebf;strokeWidth=5;" vertex="1" parent="1">
          <mxGeometry x="3630" y="-287.5" width="210" height="190" as="geometry" />
        </mxCell>
        <mxCell id="Ymar8S3VfAMfCvI-emSc-141" value="&lt;i&gt;Action&lt;/i&gt;" style="html=1;whiteSpace=wrap;" vertex="1" parent="1">
          <mxGeometry x="3680" y="-217.5" width="110" height="50" as="geometry" />
        </mxCell>
        <mxCell id="Ymar8S3VfAMfCvI-emSc-143" value="Flamethrower" style="html=1;whiteSpace=wrap;" vertex="1" parent="1">
          <mxGeometry x="3620" y="620" width="110" height="50" as="geometry" />
        </mxCell>
        <mxCell id="Ymar8S3VfAMfCvI-emSc-148" style="edgeStyle=orthogonalEdgeStyle;rounded=0;orthogonalLoop=1;jettySize=auto;html=1;exitX=1;exitY=0.5;exitDx=0;exitDy=0;entryX=0;entryY=0.5;entryDx=0;entryDy=0;dashed=1;endArrow=open;endFill=0;" edge="1" parent="1" source="Ymar8S3VfAMfCvI-emSc-152" target="Ymar8S3VfAMfCvI-emSc-135">
          <mxGeometry relative="1" as="geometry">
            <mxPoint x="2999.5" y="645" as="sourcePoint" />
          </mxGeometry>
        </mxCell>
        <mxCell id="Ymar8S3VfAMfCvI-emSc-147" value="&lt;i&gt;&amp;lt;&amp;lt;Interface&amp;gt;&amp;gt;&lt;br&gt;PurchasableWithItem&lt;/i&gt;" style="html=1;whiteSpace=wrap;" vertex="1" parent="1">
          <mxGeometry x="3080" y="190" width="115" height="50" as="geometry" />
        </mxCell>
        <mxCell id="Ymar8S3VfAMfCvI-emSc-152" value="&lt;i&gt;Sword&lt;/i&gt;" style="html=1;whiteSpace=wrap;" vertex="1" parent="1">
          <mxGeometry x="2750" y="620" width="110" height="50" as="geometry" />
        </mxCell>
        <mxCell id="Ymar8S3VfAMfCvI-emSc-163" style="edgeStyle=orthogonalEdgeStyle;rounded=0;orthogonalLoop=1;jettySize=auto;html=1;exitX=0.5;exitY=1;exitDx=0;exitDy=0;entryX=1;entryY=0.5;entryDx=0;entryDy=0;dashed=1;endArrow=open;endFill=0;" edge="1" parent="1" source="Ymar8S3VfAMfCvI-emSc-161" target="Ymar8S3VfAMfCvI-emSc-60">
          <mxGeometry relative="1" as="geometry" />
        </mxCell>
        <mxCell id="Ymar8S3VfAMfCvI-emSc-165" style="edgeStyle=orthogonalEdgeStyle;rounded=0;orthogonalLoop=1;jettySize=auto;html=1;exitX=0.5;exitY=0;exitDx=0;exitDy=0;entryX=0.5;entryY=0;entryDx=0;entryDy=0;endArrow=block;endFill=0;" edge="1" parent="1" source="Ymar8S3VfAMfCvI-emSc-161" target="Ymar8S3VfAMfCvI-emSc-34">
          <mxGeometry relative="1" as="geometry">
            <Array as="points">
              <mxPoint x="3345" y="-370" />
              <mxPoint x="1175" y="-370" />
            </Array>
          </mxGeometry>
        </mxCell>
        <mxCell id="Ymar8S3VfAMfCvI-emSc-161" value="Trader" style="html=1;whiteSpace=wrap;" vertex="1" parent="1">
          <mxGeometry x="3290" y="147.91000000000008" width="110" height="50" as="geometry" />
        </mxCell>
        <mxCell id="Ymar8S3VfAMfCvI-emSc-162" value="npcs" style="shape=umlFrame;whiteSpace=wrap;html=1;pointerEvents=0;strokeWidth=5;fillColor=#dae8fc;strokeColor=#6c8ebf;width=50;height=30;" vertex="1" parent="1">
          <mxGeometry x="3280" y="100" width="280" height="140" as="geometry" />
        </mxCell>
        <mxCell id="Ymar8S3VfAMfCvI-emSc-168" style="edgeStyle=orthogonalEdgeStyle;rounded=0;orthogonalLoop=1;jettySize=auto;html=1;exitX=0.5;exitY=0;exitDx=0;exitDy=0;endArrow=block;endFill=0;" edge="1" parent="1" source="Ymar8S3VfAMfCvI-emSc-166" target="Ymar8S3VfAMfCvI-emSc-77">
          <mxGeometry relative="1" as="geometry" />
        </mxCell>
        <mxCell id="Ymar8S3VfAMfCvI-emSc-173" style="edgeStyle=orthogonalEdgeStyle;rounded=0;orthogonalLoop=1;jettySize=auto;html=1;exitX=1;exitY=0.5;exitDx=0;exitDy=0;entryX=0;entryY=0.5;entryDx=0;entryDy=0;dashed=1;endArrow=block;endFill=0;" edge="1" parent="1" source="Ymar8S3VfAMfCvI-emSc-166" target="Ymar8S3VfAMfCvI-emSc-172">
          <mxGeometry relative="1" as="geometry">
            <Array as="points">
              <mxPoint x="2250" y="525" />
              <mxPoint x="2250" y="215" />
            </Array>
          </mxGeometry>
        </mxCell>
        <mxCell id="Ymar8S3VfAMfCvI-emSc-166" value="&lt;i&gt;ConsumableItem&lt;/i&gt;" style="html=1;whiteSpace=wrap;" vertex="1" parent="1">
          <mxGeometry x="2070" y="500" width="110" height="50" as="geometry" />
        </mxCell>
        <mxCell id="Ymar8S3VfAMfCvI-emSc-169" style="edgeStyle=orthogonalEdgeStyle;rounded=0;orthogonalLoop=1;jettySize=auto;html=1;exitX=0.5;exitY=0;exitDx=0;exitDy=0;entryX=0.5;entryY=1;entryDx=0;entryDy=0;endArrow=block;endFill=0;" edge="1" parent="1" source="Ymar8S3VfAMfCvI-emSc-167" target="Ymar8S3VfAMfCvI-emSc-166">
          <mxGeometry relative="1" as="geometry" />
        </mxCell>
        <mxCell id="Ymar8S3VfAMfCvI-emSc-178" style="edgeStyle=orthogonalEdgeStyle;rounded=0;orthogonalLoop=1;jettySize=auto;html=1;exitX=0;exitY=0.5;exitDx=0;exitDy=0;entryX=0.5;entryY=1;entryDx=0;entryDy=0;endArrow=open;endFill=0;" edge="1" parent="1" source="Ymar8S3VfAMfCvI-emSc-166" target="Ymar8S3VfAMfCvI-emSc-175">
          <mxGeometry relative="1" as="geometry">
            <Array as="points">
              <mxPoint x="1900" y="525" />
              <mxPoint x="1900" y="1000" />
              <mxPoint x="3895" y="1000" />
            </Array>
          </mxGeometry>
        </mxCell>
        <mxCell id="Ymar8S3VfAMfCvI-emSc-179" value="1" style="edgeLabel;html=1;align=center;verticalAlign=middle;resizable=0;points=[];" vertex="1" connectable="0" parent="Ymar8S3VfAMfCvI-emSc-178">
          <mxGeometry x="0.9836" y="3" relative="1" as="geometry">
            <mxPoint x="18" y="-10" as="offset" />
          </mxGeometry>
        </mxCell>
        <mxCell id="Ymar8S3VfAMfCvI-emSc-180" value="Has" style="edgeLabel;html=1;align=center;verticalAlign=middle;resizable=0;points=[];" vertex="1" connectable="0" parent="Ymar8S3VfAMfCvI-emSc-178">
          <mxGeometry x="-0.7538" y="-4" relative="1" as="geometry">
            <mxPoint x="4" y="-11" as="offset" />
          </mxGeometry>
        </mxCell>
        <mxCell id="Ymar8S3VfAMfCvI-emSc-181" value="1" style="edgeLabel;html=1;align=center;verticalAlign=middle;resizable=0;points=[];" vertex="1" connectable="0" parent="Ymar8S3VfAMfCvI-emSc-178">
          <mxGeometry x="-0.9698" y="-2" relative="1" as="geometry">
            <mxPoint x="35" y="-13" as="offset" />
          </mxGeometry>
        </mxCell>
        <mxCell id="Ymar8S3VfAMfCvI-emSc-183" style="edgeStyle=orthogonalEdgeStyle;rounded=0;orthogonalLoop=1;jettySize=auto;html=1;exitX=0;exitY=0.5;exitDx=0;exitDy=0;entryX=1;entryY=0.5;entryDx=0;entryDy=0;dashed=1;endArrow=open;endFill=0;" edge="1" parent="1" source="Ymar8S3VfAMfCvI-emSc-167" target="Ymar8S3VfAMfCvI-emSc-182">
          <mxGeometry relative="1" as="geometry" />
        </mxCell>
        <mxCell id="Ymar8S3VfAMfCvI-emSc-167" value="GoldenRune" style="html=1;whiteSpace=wrap;" vertex="1" parent="1">
          <mxGeometry x="2070" y="600" width="110" height="50" as="geometry" />
        </mxCell>
        <mxCell id="Ymar8S3VfAMfCvI-emSc-171" style="edgeStyle=orthogonalEdgeStyle;rounded=0;orthogonalLoop=1;jettySize=auto;html=1;exitX=0;exitY=0.5;exitDx=0;exitDy=0;entryX=1;entryY=0.5;entryDx=0;entryDy=0;dashed=1;endArrow=open;endFill=0;" edge="1" parent="1" source="Ymar8S3VfAMfCvI-emSc-170" target="Ymar8S3VfAMfCvI-emSc-161">
          <mxGeometry relative="1" as="geometry" />
        </mxCell>
        <mxCell id="Ymar8S3VfAMfCvI-emSc-170" value="NpcManager" style="html=1;whiteSpace=wrap;" vertex="1" parent="1">
          <mxGeometry x="3440" y="147.91000000000008" width="110" height="50" as="geometry" />
        </mxCell>
        <mxCell id="Ymar8S3VfAMfCvI-emSc-172" value="&lt;i&gt;&amp;lt;&amp;lt;Interface&amp;gt;&amp;gt;&lt;br&gt;Consumable&lt;/i&gt;" style="html=1;whiteSpace=wrap;" vertex="1" parent="1">
          <mxGeometry x="2410" y="190" width="110" height="50" as="geometry" />
        </mxCell>
        <mxCell id="Ymar8S3VfAMfCvI-emSc-176" style="edgeStyle=orthogonalEdgeStyle;rounded=0;orthogonalLoop=1;jettySize=auto;html=1;exitX=0.5;exitY=0;exitDx=0;exitDy=0;endArrow=block;endFill=0;entryX=0.5;entryY=1;entryDx=0;entryDy=0;" edge="1" parent="1" source="Ymar8S3VfAMfCvI-emSc-175" target="Ymar8S3VfAMfCvI-emSc-141">
          <mxGeometry relative="1" as="geometry">
            <Array as="points">
              <mxPoint x="3895" y="220" />
              <mxPoint x="3735" y="220" />
            </Array>
          </mxGeometry>
        </mxCell>
        <mxCell id="Ymar8S3VfAMfCvI-emSc-175" value="ConsumeAction" style="html=1;whiteSpace=wrap;" vertex="1" parent="1">
          <mxGeometry x="3840" y="620" width="110" height="50" as="geometry" />
        </mxCell>
        <mxCell id="Ymar8S3VfAMfCvI-emSc-182" value="RuneManager" style="html=1;whiteSpace=wrap;" vertex="1" parent="1">
          <mxGeometry x="1710" y="600" width="110" height="50" as="geometry" />
        </mxCell>
        <mxCell id="Ymar8S3VfAMfCvI-emSc-184" value="runes" style="shape=umlFrame;whiteSpace=wrap;html=1;pointerEvents=0;width=70;height=30;fillColor=#dae8fc;strokeColor=#6c8ebf;strokeWidth=5;" vertex="1" parent="1">
          <mxGeometry x="1680" y="556" width="165" height="122" as="geometry" />
        </mxCell>
      </root>
    </mxGraphModel>
  </diagram>
</mxfile>
